<svg width="562" height="86" viewBox="0 0 562 86" fill="none" xmlns="http://www.w3.org/2000/svg">
<path d="M-5.00679e-06 70.08C-5.00679e-06 59.328 -5.00679e-06 48.448 -5.00679e-06 37.44C-5.00679e-06 26.432 -5.00679e-06 15.552 -5.00679e-06 4.8C3.96799 4.8 7.968 4.8 12 4.8C16.032 4.8 20.032 4.8 24 4.8C25.856 11.328 27.68 17.952 29.472 24.672C31.328 31.328 33.152 37.92 34.944 44.448C36.736 37.92 38.528 31.328 40.32 24.672C42.176 17.952 44 11.328 45.792 4.8C49.76 4.8 53.728 4.8 57.696 4.8C61.664 4.8 65.6 4.8 69.504 4.8C69.568 15.552 69.632 26.432 69.696 37.44C69.76 48.448 69.824 59.328 69.888 70.08C67.2 70.08 64.48 70.08 61.728 70.08C59.04 70.08 56.352 70.08 53.664 70.08C53.664 62.784 53.664 55.424 53.664 48C53.664 40.512 53.664 33.12 53.664 25.824C51.744 33.12 49.792 40.512 47.808 48C45.824 55.424 43.872 62.784 41.952 70.08C39.584 70.08 37.152 70.08 34.656 70.08C32.224 70.08 29.792 70.08 27.36 70.08C25.44 62.912 23.52 55.68 21.6 48.384C19.68 41.024 17.76 33.76 15.84 26.592C15.84 33.76 15.84 41.024 15.84 48.384C15.84 55.68 15.84 62.912 15.84 70.08C13.28 70.08 10.656 70.08 7.96799 70.08C5.27999 70.08 2.624 70.08 -5.00679e-06 70.08ZM110.726 70.08C110.726 69.568 110.726 69.088 110.726 68.64C110.726 68.128 110.726 67.648 110.726 67.2C109.126 68.544 107.302 69.568 105.254 70.272C103.27 71.04 101.126 71.424 98.8223 71.424C95.5582 71.424 92.4862 70.816 89.6062 69.6C86.7262 68.32 84.1662 66.528 81.9262 64.224C79.7502 61.856 78.0222 59.072 76.7422 55.872C75.5262 52.672 74.9182 49.12 74.9182 45.216C74.9182 41.248 75.5262 37.664 76.7422 34.464C78.0222 31.264 79.7502 28.544 81.9262 26.304C84.1662 24 86.7262 22.24 89.6062 21.024C92.4862 19.744 95.5262 19.104 98.7262 19.104C101.03 19.104 103.206 19.488 105.254 20.256C107.302 20.96 109.126 21.952 110.726 23.232C110.726 22.72 110.726 22.24 110.726 21.792C110.726 21.344 110.726 20.896 110.726 20.448C113.35 20.448 116.006 20.448 118.694 20.448C121.382 20.448 124.006 20.448 126.566 20.448C126.566 28.64 126.566 36.928 126.566 45.312C126.566 53.632 126.566 61.888 126.566 70.08C124.006 70.08 121.382 70.08 118.694 70.08C116.006 70.08 113.35 70.08 110.726 70.08ZM100.934 57.408C104.006 57.408 106.47 56.288 108.326 54.048C110.182 51.808 111.11 48.864 111.11 45.216C111.11 41.568 110.182 38.656 108.326 36.48C106.47 34.24 104.006 33.12 100.934 33.12C97.7982 33.12 95.3022 34.208 93.4462 36.384C91.6542 38.56 90.7582 41.504 90.7582 45.216C90.7582 48.928 91.6542 51.904 93.4462 54.144C95.3022 56.32 97.7982 57.408 100.934 57.408ZM137.906 85.44C139.186 82.048 140.498 78.624 141.842 75.168C143.25 71.776 144.594 68.416 145.874 65.088C142.866 57.728 139.794 50.304 136.658 42.816C133.586 35.264 130.546 27.808 127.538 20.448C130.354 20.448 133.17 20.448 135.986 20.448C138.802 20.448 141.586 20.448 144.338 20.448C146.002 24.544 147.666 28.704 149.33 32.928C151.058 37.152 152.754 41.344 154.418 45.504C155.954 41.344 157.522 37.152 159.122 32.928C160.722 28.704 162.29 24.544 163.826 20.448C166.578 20.448 169.33 20.448 172.082 20.448C174.834 20.448 177.586 20.448 180.338 20.448C176.05 31.136 171.73 41.984 167.378 52.992C163.09 63.936 158.802 74.752 154.514 85.44C151.762 85.44 148.978 85.44 146.162 85.44C143.41 85.44 140.658 85.44 137.906 85.44ZM227.669 20.448C227.669 28.64 227.669 36.928 227.669 45.312C227.669 53.632 227.669 61.888 227.669 70.08C225.109 70.08 222.485 70.08 219.797 70.08C217.109 70.08 214.453 70.08 211.829 70.08C211.829 69.632 211.829 69.216 211.829 68.832C211.829 68.448 211.829 68.032 211.829 67.584C210.101 68.8 208.149 69.728 205.973 70.368C203.861 71.072 201.557 71.424 199.061 71.424C195.413 71.424 192.181 70.592 189.365 68.928C186.613 67.264 184.437 64.864 182.837 61.728C181.301 58.592 180.533 54.88 180.533 50.592C180.533 45.6 180.533 40.576 180.533 35.52C180.533 30.464 180.533 25.44 180.533 20.448C183.157 20.448 185.813 20.448 188.501 20.448C191.189 20.448 193.813 20.448 196.373 20.448C196.373 25.056 196.373 29.728 196.373 34.464C196.373 39.2 196.373 43.872 196.373 48.48C196.373 51.04 196.949 53.12 198.101 54.72C199.317 56.256 201.205 57.024 203.765 57.024C206.325 57.024 208.309 56.288 209.717 54.816C211.125 53.344 211.829 51.232 211.829 48.48C211.829 43.872 211.829 39.2 211.829 34.464C211.829 29.728 211.829 25.056 211.829 20.448C214.453 20.448 217.109 20.448 219.797 20.448C222.485 20.448 225.109 20.448 227.669 20.448ZM234.847 70.08C234.847 58.496 234.847 46.816 234.847 35.04C234.847 23.264 234.847 11.584 234.847 0C237.471 0 240.127 0 242.815 0C245.503 0 248.127 0 250.687 0C250.687 6.272 250.687 12.64 250.687 19.104C250.687 25.568 250.687 31.936 250.687 38.208C252.991 35.264 255.295 32.32 257.599 29.376C259.903 26.368 262.207 23.392 264.511 20.448C267.583 20.448 270.655 20.448 273.727 20.448C276.863 20.448 279.967 20.448 283.039 20.448C280.031 24.224 276.959 28.032 273.823 31.872C270.751 35.712 267.711 39.52 264.703 43.296C267.903 47.712 271.103 52.192 274.303 56.736C277.567 61.216 280.767 65.664 283.903 70.08C280.767 70.08 277.631 70.08 274.495 70.08C271.359 70.08 268.223 70.08 265.087 70.08C262.719 66.688 260.319 63.264 257.887 59.808C255.455 56.288 253.055 52.832 250.687 49.44C250.687 52.832 250.687 56.288 250.687 59.808C250.687 63.264 250.687 66.688 250.687 70.08C248.127 70.08 245.503 70.08 242.815 70.08C240.127 70.08 237.471 70.08 234.847 70.08ZM285.851 70.08C285.851 58.496 285.851 46.816 285.851 35.04C285.851 23.264 285.851 11.584 285.851 0C288.475 0 291.131 0 293.819 0C296.507 0 299.131 0 301.691 0C301.691 3.776 301.691 7.616 301.691 11.52C301.691 15.36 301.691 19.168 301.691 22.944C303.419 21.728 305.339 20.8 307.451 20.16C309.627 19.456 311.963 19.104 314.459 19.104C318.107 19.104 321.307 19.936 324.059 21.6C326.875 23.264 329.051 25.664 330.587 28.8C332.187 31.872 332.987 35.584 332.987 39.936C332.987 44.928 332.987 49.952 332.987 55.008C332.987 60.064 332.987 65.088 332.987 70.08C330.427 70.08 327.803 70.08 325.115 70.08C322.427 70.08 319.771 70.08 317.147 70.08C317.147 65.472 317.147 60.8 317.147 56.064C317.147 51.328 317.147 46.656 317.147 42.048C317.147 39.488 316.539 37.44 315.323 35.904C314.171 34.304 312.315 33.504 309.755 33.504C307.195 33.504 305.211 34.24 303.803 35.712C302.395 37.184 301.691 39.296 301.691 42.048C301.691 46.656 301.691 51.328 301.691 56.064C301.691 60.8 301.691 65.472 301.691 70.08C299.131 70.08 296.507 70.08 293.819 70.08C291.131 70.08 288.475 70.08 285.851 70.08ZM399.188 50.4C399.188 55.264 397.908 59.232 395.348 62.304C392.852 65.312 389.46 67.488 385.172 68.832C380.948 70.176 376.212 70.752 370.964 70.56C365.716 70.432 360.372 69.632 354.932 68.16C354.932 65.408 354.932 62.656 354.932 59.904C354.932 57.152 354.932 54.4 354.932 51.648C359.924 53.44 364.468 54.56 368.564 55.008C372.66 55.456 375.924 55.296 378.356 54.528C380.788 53.696 382.004 52.32 382.004 50.4C382.004 49.056 381.332 47.968 379.988 47.136C378.644 46.24 376.884 45.44 374.708 44.736C372.596 44.032 370.356 43.232 367.988 42.336C365.62 41.376 363.348 40.192 361.172 38.784C359.06 37.312 357.332 35.424 355.988 33.12C354.644 30.752 353.972 27.808 353.972 24.288C353.972 19.936 355.124 16.256 357.428 13.248C359.732 10.24 362.836 7.968 366.74 6.432C370.708 4.896 375.188 4.128 380.18 4.128C385.236 4.128 390.452 4.896 395.828 6.432C395.828 9.184 395.828 11.936 395.828 14.688C395.828 17.44 395.828 20.192 395.828 22.944C391.348 21.024 387.22 19.872 383.444 19.488C379.732 19.04 376.756 19.232 374.516 20.064C372.276 20.832 371.156 22.112 371.156 23.904C371.156 25.184 371.828 26.24 373.172 27.072C374.516 27.904 376.244 28.672 378.356 29.376C380.532 30.016 382.804 30.816 385.172 31.776C387.54 32.672 389.78 33.888 391.892 35.424C394.068 36.896 395.828 38.848 397.172 41.28C398.516 43.648 399.188 46.688 399.188 50.4ZM436.252 70.08C436.252 69.568 436.252 69.088 436.252 68.64C436.252 68.128 436.252 67.648 436.252 67.2C434.652 68.544 432.828 69.568 430.78 70.272C428.796 71.04 426.652 71.424 424.348 71.424C421.084 71.424 418.012 70.816 415.132 69.6C412.252 68.32 409.692 66.528 407.452 64.224C405.276 61.856 403.548 59.072 402.268 55.872C401.052 52.672 400.444 49.12 400.444 45.216C400.444 41.248 401.052 37.664 402.268 34.464C403.548 31.264 405.276 28.544 407.452 26.304C409.692 24 412.252 22.24 415.132 21.024C418.012 19.744 421.052 19.104 424.252 19.104C426.556 19.104 428.732 19.488 430.78 20.256C432.828 20.96 434.652 21.952 436.252 23.232C436.252 22.72 436.252 22.24 436.252 21.792C436.252 21.344 436.252 20.896 436.252 20.448C438.876 20.448 441.532 20.448 444.22 20.448C446.908 20.448 449.532 20.448 452.092 20.448C452.092 28.64 452.092 36.928 452.092 45.312C452.092 53.632 452.092 61.888 452.092 70.08C449.532 70.08 446.908 70.08 444.22 70.08C441.532 70.08 438.876 70.08 436.252 70.08ZM426.46 57.408C429.532 57.408 431.996 56.288 433.852 54.048C435.708 51.808 436.636 48.864 436.636 45.216C436.636 41.568 435.708 38.656 433.852 36.48C431.996 34.24 429.532 33.12 426.46 33.12C423.324 33.12 420.828 34.208 418.972 36.384C417.18 38.56 416.284 41.504 416.284 45.216C416.284 48.928 417.18 51.904 418.972 54.144C420.828 56.32 423.324 57.408 426.46 57.408ZM459.304 70.08C459.304 58.496 459.304 46.816 459.304 35.04C459.304 23.264 459.304 11.584 459.304 0C461.928 0 464.584 0 467.272 0C469.96 0 472.584 0 475.144 0C475.144 3.776 475.144 7.616 475.144 11.52C475.144 15.36 475.144 19.168 475.144 22.944C476.872 21.728 478.792 20.8 480.904 20.16C483.08 19.456 485.416 19.104 487.912 19.104C491.56 19.104 494.76 19.936 497.512 21.6C500.328 23.264 502.504 25.664 504.04 28.8C505.64 31.872 506.44 35.584 506.44 39.936C506.44 44.928 506.44 49.952 506.44 55.008C506.44 60.064 506.44 65.088 506.44 70.08C503.88 70.08 501.256 70.08 498.568 70.08C495.88 70.08 493.224 70.08 490.6 70.08C490.6 65.472 490.6 60.8 490.6 56.064C490.6 51.328 490.6 46.656 490.6 42.048C490.6 39.488 489.992 37.44 488.776 35.904C487.624 34.304 485.768 33.504 483.208 33.504C480.648 33.504 478.664 34.24 477.256 35.712C475.848 37.184 475.144 39.296 475.144 42.048C475.144 46.656 475.144 51.328 475.144 56.064C475.144 60.8 475.144 65.472 475.144 70.08C472.584 70.08 469.96 70.08 467.272 70.08C464.584 70.08 461.928 70.08 459.304 70.08ZM545.572 70.08C545.572 69.568 545.572 69.088 545.572 68.64C545.572 68.128 545.572 67.648 545.572 67.2C543.972 68.544 542.148 69.568 540.1 70.272C538.116 71.04 535.972 71.424 533.668 71.424C530.404 71.424 527.332 70.816 524.452 69.6C521.572 68.32 519.012 66.528 516.772 64.224C514.596 61.856 512.868 59.072 511.588 55.872C510.372 52.672 509.764 49.12 509.764 45.216C509.764 41.248 510.372 37.664 511.588 34.464C512.868 31.264 514.596 28.544 516.772 26.304C519.012 24 521.572 22.24 524.452 21.024C527.332 19.744 530.372 19.104 533.572 19.104C535.876 19.104 538.052 19.488 540.1 20.256C542.148 20.96 543.972 21.952 545.572 23.232C545.572 22.72 545.572 22.24 545.572 21.792C545.572 21.344 545.572 20.896 545.572 20.448C548.196 20.448 550.852 20.448 553.54 20.448C556.228 20.448 558.852 20.448 561.412 20.448C561.412 28.64 561.412 36.928 561.412 45.312C561.412 53.632 561.412 61.888 561.412 70.08C558.852 70.08 556.228 70.08 553.54 70.08C550.852 70.08 548.196 70.08 545.572 70.08ZM535.78 57.408C538.852 57.408 541.316 56.288 543.172 54.048C545.028 51.808 545.956 48.864 545.956 45.216C545.956 41.568 545.028 38.656 543.172 36.48C541.316 34.24 538.852 33.12 535.78 33.12C532.644 33.12 530.148 34.208 528.292 36.384C526.5 38.56 525.604 41.504 525.604 45.216C525.604 48.928 526.5 51.904 528.292 54.144C530.148 56.32 532.644 57.408 535.78 57.408Z" fill="#F6F8FB"/>
</svg>
